
        <svg xmlns="http://www.w3.org/2000/svg" xmlns:xlink="http://www.w3.org/1999/xlink" version="1.1" width="3187.5" 
        height="1209.7493261966056" viewBox="0 0 3187.5 1209.7493261966056">
			
			<g transform="scale(9.375) translate(10, 10)">
				<defs id="SvgjsDefs1461"></defs><g id="SvgjsG1462" featureKey="symbolFeature-0" transform="matrix(1.3678206296595798,0,0,1.3678206296595798,-18.61467123079959,-13.992804415278908)" fill="#fe7125"><g xmlns="http://www.w3.org/2000/svg"><path fill-rule="evenodd" clip-rule="evenodd" d="M80.11,49.695c0.003,5.951,1.481,10.771,3.303,10.771   c1.823,0,3.302-4.824,3.305-10.768c-0.003-5.951-1.479-10.773-3.303-10.773C81.591,38.926,80.107,43.748,80.11,49.695z"></path><path fill-rule="evenodd" clip-rule="evenodd" d="M39.138,14.154c-15.075,6.26-25.529,19.93-25.529,35.779   c-0.004,15.852,10.454,29.52,25.536,35.777C30.504,78.232,24.764,65,24.764,49.934S30.508,21.637,39.138,14.154z"></path><path fill-rule="evenodd" clip-rule="evenodd" d="M49.349,10.23c-7.066,0-12.803,17.854-12.803,39.857   c0,22.016,5.736,39.859,12.808,39.861c3.491-0.002,6.66-4.367,8.969-11.438c1.954,4.756,4.414,7.598,7.084,7.598   c6.367,0.002,11.532-16.066,11.527-35.883c0.005-19.816-5.156-35.887-11.521-35.879c-2.651,0-5.093,2.797-7.041,7.484   C56.057,14.668,52.871,10.234,49.349,10.23z M75.225,50.227c0.005,11.121-2.764,20.143-6.174,20.143   c-3.412,0-6.176-9.023-6.176-20.139c0-11.127,2.764-20.146,6.176-20.15C72.465,30.084,75.229,39.102,75.225,50.227z M57.792,23.318   c-2.395,6.576-3.907,16.191-3.907,26.908c-0.001,10.623,1.484,20.166,3.841,26.736c-1.15,1.559-2.418,2.424-3.748,2.424   c-5.202-0.004-9.414-13.117-9.414-29.299c0-16.174,4.212-29.293,9.407-29.293C55.333,20.797,56.626,21.701,57.792,23.318z"></path></g></g><g id="SvgjsG1463" featureKey="nameFeature-0" transform="matrix(1.8853692286890504,0,0,1.8853692286890504,115.6259480103739,3.1523444130229024)" fill="#040e12"><path d="M25.76 29.08 c0.2 0 0.36 0.04 0.48 0.2 c0.16 0.12 0.24 0.28 0.24 0.48 s-0.08 0.36 -0.24 0.52 c-0.12 0.12 -0.32 0.2 -0.52 0.2 l-0.56 -0.04 c-0.24 0 -0.4 0.08 -0.56 0.24 c-0.12 0.16 -0.2 0.36 -0.2 0.6 l0 6.48 c0 0.2 -0.04 0.4 -0.2 0.52 c-0.16 0.16 -0.32 0.24 -0.56 0.24 c-0.36 0 -0.72 0.04 -1.12 0.16 l-1.44 0.48 c-1.08 0.36 -2.08 0.68 -3.08 0.92 c-0.96 0.2 -2.12 0.32 -3.44 0.32 c-3.84 0 -6.84 -1.04 -9 -3.12 c-2.16 -2.12 -3.24 -5.16 -3.24 -9.2 c0 -4.08 1.08 -7.2 3.28 -9.32 c2.16 -2.12 5.28 -3.16 9.28 -3.16 c1.16 0 2.2 0.08 3.12 0.32 c0.08 0 0.16 0 0.24 0.04 c0.04 0 0.08 0.04 0.16 0.04 l0.08 0 c0.28 0.08 0.52 0.12 0.8 0.2 l0.04 0.04 l0.12 0 l0 0 l0.04 0 c0 0.04 0.04 0.04 0.04 0.04 c0.04 0 0.04 0.04 0.04 0.04 c0.52 0.16 1.04 0.36 1.48 0.64 c0.88 0.48 1.56 1.08 2 1.76 c0.48 0.64 0.64 1.36 0.52 2.04 c-0.12 0.64 -0.4 1.12 -0.88 1.48 s-1.08 0.48 -1.8 0.36 c-0.6 -0.08 -1.04 -0.32 -1.36 -0.64 c-0.32 -0.36 -0.44 -0.8 -0.36 -1.32 c0.04 -0.2 0.12 -0.44 0.28 -0.72 c0.16 -0.24 0.28 -0.48 0.32 -0.76 s0.08 -0.48 0.08 -0.72 c-0.2 -0.6 -0.72 -1 -1.64 -1.24 c-0.88 -0.2 -1.84 -0.32 -2.88 -0.32 c-0.68 0 -1.32 0.08 -1.92 0.28 c-1.32 0.44 -2.4 1.32 -3.2 2.68 c-1.24 1.96 -1.84 4.84 -1.84 8.6 c0 7.04 2.2 10.56 6.56 10.56 c0.84 0 1.56 -0.12 2.16 -0.4 c0.64 -0.24 1.24 -0.68 1.8 -1.32 l0 -5.96 c0 -0.6 -0.28 -0.88 -0.76 -0.88 l-1.68 0.04 c-0.2 0 -0.36 -0.04 -0.48 -0.2 c-0.16 -0.12 -0.24 -0.28 -0.24 -0.48 l0 -0.04 c0 -0.2 0.08 -0.36 0.2 -0.48 c0.16 -0.16 0.32 -0.2 0.52 -0.2 l9.32 0 z M27.52 31.439999999999998 c0 0.36 0.12 0.64 0.36 0.88 s0.52 0.36 0.88 0.36 l5.8 0 c0.32 0 0.64 -0.12 0.88 -0.36 s0.36 -0.52 0.36 -0.88 s-0.12 -0.64 -0.36 -0.88 s-0.56 -0.36 -0.88 -0.36 l-5.8 0 c-0.36 0 -0.64 0.12 -0.88 0.36 s-0.36 0.52 -0.36 0.88 z M59.92 38.96 l0.08 0 c0.16 0 0.32 0.04 0.4 0.12 c0.12 0.12 0.16 0.24 0.16 0.4 s-0.04 0.28 -0.16 0.36 c-0.08 0.12 -0.2 0.16 -0.36 0.16 l-4.36 0 c-0.72 0 -1.36 -0.24 -1.88 -0.76 c-0.56 -0.48 -0.84 -1.12 -0.92 -1.84 l0 -0.04 c-0.04 -0.72 -0.08 -1.2 -0.08 -1.56 l0 -1.32 c0 -1.8 -0.48 -3.16 -1.52 -4.04 c-1 -0.88 -2.24 -1.32 -3.68 -1.32 l-0.6 0 c-0.16 0 -0.28 0.04 -0.36 0.12 s-0.12 0.2 -0.12 0.36 l0 8.12 c0 0.56 0.24 0.88 0.8 0.88 l1.2 -0.04 c0.2 0 0.4 0.04 0.56 0.2 c0.12 0.12 0.2 0.28 0.2 0.52 c0 0.2 -0.08 0.36 -0.2 0.52 c-0.16 0.12 -0.32 0.2 -0.52 0.2 l-9.04 0 c-0.2 0 -0.4 -0.08 -0.52 -0.2 c-0.16 -0.16 -0.2 -0.32 -0.2 -0.52 s0.04 -0.4 0.2 -0.52 c0.16 -0.16 0.32 -0.2 0.56 -0.2 l0.64 0.04 l0.08 0 c0.44 0 0.68 -0.32 0.68 -0.88 l0 -19.48 c0 -0.24 -0.08 -0.44 -0.24 -0.6 c-0.12 -0.2 -0.36 -0.24 -0.64 -0.24 l-0.52 0.04 c-0.24 0 -0.4 -0.04 -0.56 -0.2 c-0.16 -0.12 -0.2 -0.32 -0.2 -0.52 s0.04 -0.36 0.2 -0.52 c0.12 -0.12 0.32 -0.2 0.52 -0.2 l9.68 0 c2.88 0 5.04 0.48 6.4 1.48 c1.4 0.96 2.08 2.48 2.08 4.56 c0 1.64 -0.52 3 -1.56 4.08 c-1.04 1.12 -2.44 1.84 -4.28 2.24 c0.96 0 1.96 0.24 2.96 0.8 c0.96 0.52 1.8 1.32 2.44 2.32 c0.68 1.04 1 2.24 1 3.6 c0 0.76 0.12 1.56 0.36 2.4 c0.2 0.84 0.48 1.32 0.8 1.4 c0.16 0.04 0.36 0.08 0.52 0.08 z M51.36 26.32 c0.56 -0.92 0.84 -2.2 0.84 -3.76 c0 -1.8 -0.32 -3.12 -0.96 -3.92 c-0.64 -0.84 -1.64 -1.24 -2.96 -1.24 l-1.28 0 c-0.32 0 -0.48 0.16 -0.48 0.4 l0 9.4 c0 0.16 0.04 0.28 0.12 0.36 s0.2 0.12 0.36 0.12 l2.04 0 c0.96 0 1.72 -0.44 2.32 -1.36 z M66.44 19.48 c-0.72 0 -1.36 -0.24 -1.84 -0.76 c-0.52 -0.52 -0.8 -1.12 -0.8 -1.84 c0 -0.76 0.28 -1.36 0.8 -1.88 c0.48 -0.52 1.12 -0.76 1.84 -0.76 s1.36 0.24 1.88 0.76 s0.76 1.12 0.76 1.88 c0 0.72 -0.24 1.32 -0.76 1.84 s-1.16 0.76 -1.88 0.76 z M70.24 38.68 c0.16 0 0.36 0.04 0.48 0.16 c0.12 0.16 0.2 0.32 0.2 0.48 c0 0.2 -0.04 0.36 -0.2 0.48 c-0.12 0.12 -0.28 0.2 -0.44 0.2 l-7.64 0 c-0.2 0 -0.36 -0.08 -0.48 -0.2 s-0.2 -0.28 -0.2 -0.48 c0 -0.16 0.08 -0.32 0.2 -0.48 c0.16 -0.12 0.32 -0.16 0.52 -0.16 l0.6 0.04 l0.08 0 c0.32 0 0.44 -0.28 0.44 -0.76 l0 -13 c0 -0.44 -0.16 -0.72 -0.48 -0.8 l-0.64 0.04 c-0.2 0 -0.36 -0.04 -0.48 -0.16 c-0.12 -0.16 -0.2 -0.28 -0.2 -0.48 c0 -0.16 0.08 -0.32 0.2 -0.44 c0.12 -0.16 0.28 -0.2 0.44 -0.2 l5.8 0 c0.16 0 0.32 0.04 0.44 0.2 c0.12 0.12 0.2 0.28 0.2 0.44 l0 14.4 c0 0.52 0.16 0.8 0.52 0.76 z M73.99999999999999 34.24 c-0.2 0.04 -0.32 0.08 -0.48 0.24 c-0.12 0.12 -0.16 0.28 -0.2 0.44 l-0.12 3.24 c0 0.32 0.12 0.6 0.36 0.84 c0.2 0.24 0.48 0.36 0.84 0.36 c0.32 0 0.72 0.04 1.12 0.16 c1.36 0.36 2.32 0.6 2.96 0.72 s1.28 0.16 1.88 0.16 c2.12 0 3.8 -0.52 5.12 -1.6 c1.28 -1.04 1.92 -2.52 1.92 -4.44 c0 -1.4 -0.36 -2.52 -1.04 -3.4 s-1.96 -1.56 -3.8 -2.04 l-2.76 -0.72 c-0.72 -0.2 -1.28 -0.48 -1.64 -0.84 c-0.4 -0.36 -0.56 -0.8 -0.56 -1.32 c0 -0.6 0.24 -1.12 0.72 -1.52 c0.52 -0.44 1.16 -0.64 2 -0.64 c1.44 0 2.6 0.36 3.44 1.12 c0.68 0.6 1.08 1.32 1.2 2.08 c0.04 0.16 0.12 0.32 0.24 0.44 c0.12 0.08 0.24 0.12 0.4 0.12 c0.2 0 0.32 -0.04 0.44 -0.16 s0.2 -0.24 0.2 -0.44 l0.16 -2.52 c0 -0.32 -0.12 -0.6 -0.32 -0.8 s-0.48 -0.32 -0.8 -0.32 l0 0 c-0.48 0 -1.16 -0.12 -2.04 -0.36 c-0.64 -0.2 -1.24 -0.32 -1.68 -0.4 s-0.96 -0.12 -1.52 -0.12 c-2.08 0 -3.72 0.52 -4.88 1.56 c-1.12 1 -1.72 2.36 -1.72 4.04 c0 1.36 0.36 2.48 1.12 3.36 c0.72 0.88 1.88 1.52 3.44 1.96 l2.88 0.8 c0.92 0.24 1.6 0.56 2 0.92 c0.36 0.36 0.56 0.84 0.56 1.48 c0 0.72 -0.24 1.32 -0.76 1.72 c-0.52 0.44 -1.24 0.64 -2.12 0.64 c-1.6 0 -3 -0.48 -4.12 -1.36 c-0.96 -0.76 -1.52 -1.68 -1.68 -2.76 c0 -0.2 -0.08 -0.36 -0.24 -0.48 c-0.12 -0.08 -0.28 -0.16 -0.48 -0.16 l-0.04 0 z M108.4 39.36 c0 -0.2 -0.04 -0.36 -0.2 -0.48 c-0.12 -0.16 -0.28 -0.2 -0.48 -0.2 l-0.48 0.04 c-0.16 0.04 -0.32 -0.04 -0.56 -0.2 c-0.2 -0.12 -0.36 -0.32 -0.52 -0.52 l-5.24 -9.04 c-0.16 -0.28 -0.2 -0.56 -0.16 -0.88 c0.04 -0.28 0.2 -0.56 0.44 -0.76 l3.08 -2.64 c0.44 -0.36 0.84 -0.56 1.24 -0.56 l0.8 0.04 c0.16 0 0.32 -0.04 0.44 -0.16 c0.16 -0.12 0.2 -0.28 0.2 -0.44 c0 -0.2 -0.04 -0.32 -0.16 -0.48 c-0.12 -0.12 -0.28 -0.16 -0.44 -0.16 l-5.6 0 c-0.16 0 -0.32 0.04 -0.44 0.16 c-0.12 0.16 -0.2 0.28 -0.2 0.48 c0 0.16 0.08 0.32 0.2 0.44 s0.28 0.16 0.48 0.16 l1.08 -0.04 c0.08 -0.04 0.16 0 0.24 0.08 c0.08 0.04 0.12 0.12 0.12 0.2 c0 0.2 -0.08 0.36 -0.24 0.52 l-5.24 4.48 c-0.28 0.2 -0.52 0.24 -0.8 0.12 c-0.28 -0.16 -0.4 -0.36 -0.4 -0.68 l0 -12.24 c0 -0.16 -0.08 -0.32 -0.2 -0.44 s-0.24 -0.2 -0.44 -0.2 l-5.8 0 c-0.2 0 -0.32 0.08 -0.44 0.2 c-0.16 0.12 -0.2 0.28 -0.2 0.44 s0.08 0.32 0.2 0.44 s0.28 0.2 0.48 0.16 l0.64 -0.04 c0.32 0 0.48 0.28 0.48 0.84 l0 19.96 c0 0.4 -0.16 0.68 -0.52 0.76 l-0.64 -0.04 c-0.16 0 -0.36 0.04 -0.48 0.16 c-0.12 0.16 -0.2 0.32 -0.2 0.48 l0 0.04 c0 0.16 0.08 0.32 0.2 0.44 s0.28 0.2 0.44 0.2 l7.76 0 c0.16 0 0.32 -0.08 0.44 -0.2 s0.2 -0.28 0.2 -0.44 l0 -0.04 c0 -0.16 -0.08 -0.32 -0.2 -0.48 c-0.12 -0.12 -0.28 -0.16 -0.48 -0.16 l-0.72 0.04 c-0.36 0.04 -0.52 -0.24 -0.52 -0.76 l0 -5.48 c0 -0.24 0.08 -0.4 0.24 -0.56 c0.2 -0.16 0.4 -0.2 0.6 -0.16 c0.24 0.04 0.4 0.16 0.52 0.32 l3.52 6.08 c0.08 0.16 0.12 0.28 0.08 0.4 s-0.16 0.16 -0.36 0.16 l-0.08 0 l-0.64 -0.04 c-0.2 0 -0.36 0.04 -0.52 0.16 c-0.12 0.16 -0.2 0.32 -0.2 0.48 l0 0.04 c0 0.16 0.08 0.32 0.2 0.44 s0.28 0.2 0.48 0.2 l8.36 0 c0.2 0 0.32 -0.08 0.48 -0.2 c0.12 -0.12 0.16 -0.28 0.16 -0.44 z"></path></g>
			</g>
		</svg>
	